<svg width="512" height="512" viewBox="0 0 512 512" fill="none" xmlns="http://www.w3.org/2000/svg">
<g clip-path="url(#clip0_117_72)">
<path d="M76.8 413.867C95.6513 413.867 110.933 398.585 110.933 379.733C110.933 360.882 95.6513 345.6 76.8 345.6C57.9487 345.6 42.6667 360.882 42.6667 379.733C42.6667 398.585 57.9487 413.867 76.8 413.867Z" fill="#3F5C6C"/>
<path d="M213.333 379.733C213.359 382.615 212.986 385.487 212.224 388.267C207.686 405.564 190.491 416.36 172.941 412.931C155.39 409.503 143.522 393.03 145.827 375.296C148.133 357.563 163.818 344.672 181.662 345.844C199.506 347.017 213.369 361.851 213.333 379.733Z" fill="#3F5C6C"/>
<path d="M366.933 379.733C366.884 396.884 354.117 411.335 337.103 413.497C320.089 415.659 304.113 404.86 299.776 388.267C299.014 385.487 298.641 382.615 298.667 379.733C298.667 360.882 313.949 345.6 332.8 345.6C351.651 345.6 366.933 360.882 366.933 379.733Z" fill="#3F5C6C"/>
<path d="M435.2 413.867C454.051 413.867 469.333 398.585 469.333 379.733C469.333 360.882 454.051 345.6 435.2 345.6C416.349 345.6 401.067 360.882 401.067 379.733C401.067 398.585 416.349 413.867 435.2 413.867Z" fill="#3F5C6C"/>
<path d="M486.4 294.4V337.067C486.372 346.481 478.747 354.105 469.333 354.133H42.6666C33.2527 354.105 25.6281 346.481 25.6 337.067V294.4H486.4Z" fill="#7F8C8D"/>
<path d="M494.933 123.733V302.933C494.933 307.646 491.113 311.467 486.4 311.467H25.6C20.8872 311.467 17.0667 307.646 17.0667 302.933V123.733H494.933Z" fill="#E64C3C"/>
<path d="M298.667 379.733C298.641 382.615 299.014 385.487 299.776 388.267H212.224C212.986 385.487 213.359 382.615 213.333 379.733C213.339 369.925 209.108 360.593 201.728 354.133H310.272C302.892 360.593 298.661 369.925 298.667 379.733V379.733Z" fill="#56595E"/>
<path d="M76.8 388.267C81.5128 388.267 85.3333 384.446 85.3333 379.733C85.3333 375.021 81.5128 371.2 76.8 371.2C72.0872 371.2 68.2667 375.021 68.2667 379.733C68.2667 384.446 72.0872 388.267 76.8 388.267Z" fill="#95A5A5"/>
<path d="M179.2 388.267C183.913 388.267 187.733 384.446 187.733 379.733C187.733 375.021 183.913 371.2 179.2 371.2C174.487 371.2 170.667 375.021 170.667 379.733C170.667 384.446 174.487 388.267 179.2 388.267Z" fill="#95A5A5"/>
<path d="M332.8 388.267C337.513 388.267 341.333 384.446 341.333 379.733C341.333 375.021 337.513 371.2 332.8 371.2C328.087 371.2 324.267 375.021 324.267 379.733C324.267 384.446 328.087 388.267 332.8 388.267Z" fill="#95A5A5"/>
<path d="M435.2 388.267C439.913 388.267 443.733 384.446 443.733 379.733C443.733 375.021 439.913 371.2 435.2 371.2C430.487 371.2 426.667 375.021 426.667 379.733C426.667 384.446 430.487 388.267 435.2 388.267Z" fill="#95A5A5"/>
<path d="M119.467 183.467H68.2667C63.5538 183.467 59.7333 187.287 59.7333 192V243.2C59.7333 247.913 63.5538 251.733 68.2667 251.733H119.467C124.18 251.733 128 247.913 128 243.2V192C128 187.287 124.18 183.467 119.467 183.467Z" fill="#67B9CC"/>
<path d="M221.867 183.467H170.667C165.954 183.467 162.133 187.287 162.133 192V243.2C162.133 247.913 165.954 251.733 170.667 251.733H221.867C226.58 251.733 230.4 247.913 230.4 243.2V192C230.4 187.287 226.58 183.467 221.867 183.467Z" fill="#67B9CC"/>
<path d="M324.267 183.467H273.067C268.354 183.467 264.533 187.287 264.533 192V243.2C264.533 247.913 268.354 251.733 273.067 251.733H324.267C328.979 251.733 332.8 247.913 332.8 243.2V192C332.8 187.287 328.979 183.467 324.267 183.467Z" fill="#67B9CC"/>
<path d="M384 234.667H452.267V311.467H384V234.667Z" fill="#E64C3C"/>
<path d="M452.267 183.467V234.667H384V183.467C384 178.754 387.821 174.933 392.533 174.933H443.733C448.446 174.933 452.267 178.754 452.267 183.467Z" fill="#67B9CC"/>
<path d="M452.267 260.267V277.333H435.2C430.487 277.333 426.667 273.513 426.667 268.8C426.667 264.087 430.487 260.267 435.2 260.267H452.267Z" fill="#F3D55B"/>
<path d="M503.467 439.467H8.53333C3.8205 439.467 0 435.646 0 430.933C0 426.221 3.8205 422.4 8.53333 422.4H503.467C508.18 422.4 512 426.221 512 430.933C512 435.646 508.18 439.467 503.467 439.467Z" fill="#7F8C8D"/>
<path d="M119.467 260.267H68.2667C58.841 260.267 51.2 252.626 51.2 243.2V192C51.2 182.574 58.841 174.933 68.2667 174.933H119.467C128.892 174.933 136.533 182.574 136.533 192V243.2C136.533 252.626 128.892 260.267 119.467 260.267ZM68.2667 192V243.2H119.467V192H68.2667Z" fill="#BDC3C7"/>
<path d="M221.867 260.267H170.667C161.241 260.267 153.6 252.626 153.6 243.2V192C153.6 182.574 161.241 174.933 170.667 174.933H221.867C231.292 174.933 238.933 182.574 238.933 192V243.2C238.933 252.626 231.292 260.267 221.867 260.267ZM170.667 192V243.2H221.867V192H170.667Z" fill="#BDC3C7"/>
<path d="M324.267 260.267H273.067C263.641 260.267 256 252.626 256 243.2V192C256 182.574 263.641 174.933 273.067 174.933H324.267C333.692 174.933 341.333 182.574 341.333 192V243.2C341.333 252.626 333.692 260.267 324.267 260.267ZM273.067 192V243.2H324.267V192H273.067Z" fill="#BDC3C7"/>
<path d="M76.8 422.4C53.2359 422.4 34.1334 403.297 34.1334 379.733C34.1334 356.169 53.2359 337.067 76.8 337.067C100.364 337.067 119.467 356.169 119.467 379.733C119.438 403.286 100.352 422.372 76.8 422.4ZM76.8 354.133C62.6615 354.133 51.2 365.595 51.2 379.733C51.2 393.872 62.6615 405.333 76.8 405.333C90.9385 405.333 102.4 393.872 102.4 379.733C102.4 365.595 90.9385 354.133 76.8 354.133Z" fill="#95A5A5"/>
<path d="M179.2 422.4C161.462 422.379 145.588 411.385 139.329 394.788C133.071 378.191 137.733 359.453 151.04 347.725C167.298 333.982 191.102 333.982 207.36 347.725C216.569 355.815 221.854 367.475 221.867 379.733C221.894 383.397 221.414 387.047 220.442 390.579C215.574 409.359 198.601 422.455 179.2 422.4ZM179.2 354.133C165.062 354.133 153.6 365.595 153.6 379.733C153.6 393.872 165.062 405.333 179.2 405.333C190.865 405.357 201.057 397.46 203.947 386.159C204.533 384.068 204.82 381.905 204.8 379.733C204.753 365.614 193.319 354.18 179.2 354.133Z" fill="#95A5A5"/>
<path d="M332.8 422.4C313.327 422.437 296.317 409.244 291.507 390.374C290.564 386.907 290.101 383.327 290.133 379.733C290.146 367.475 295.431 355.815 304.64 347.725C320.898 333.982 344.702 333.982 360.96 347.725C374.267 359.453 378.929 378.191 372.671 394.788C366.412 411.385 350.538 422.379 332.8 422.4V422.4ZM332.8 354.133C318.679 354.175 307.242 365.612 307.2 379.733C307.173 381.834 307.44 383.928 307.994 385.954C311.255 398.835 323.846 407.065 336.953 404.885C350.06 402.704 359.308 390.841 358.224 377.598C357.141 364.356 346.087 354.154 332.8 354.133V354.133Z" fill="#95A5A5"/>
<path d="M435.2 422.4C411.636 422.4 392.533 403.297 392.533 379.733C392.533 356.169 411.636 337.067 435.2 337.067C458.764 337.067 477.867 356.169 477.867 379.733C477.838 403.286 458.752 422.372 435.2 422.4ZM435.2 354.133C421.062 354.133 409.6 365.595 409.6 379.733C409.6 393.872 421.062 405.333 435.2 405.333C449.338 405.333 460.8 393.872 460.8 379.733C460.8 365.595 449.338 354.133 435.2 354.133Z" fill="#95A5A5"/>
<path d="M443.733 311.467V183.467H392.533V311.467H375.467V183.467C375.467 174.041 383.108 166.4 392.533 166.4H443.733C453.159 166.4 460.8 174.041 460.8 183.467V311.467H443.733Z" fill="#C03A2B"/>
<path d="M503.467 123.733V132.267C503.467 136.979 499.646 140.8 494.933 140.8H17.0667C12.3538 140.8 8.53333 136.979 8.53333 132.267V123.733C8.53333 95.4563 31.4563 72.5333 59.7333 72.5333H452.267C480.544 72.5333 503.467 95.4563 503.467 123.733Z" fill="#F9EAB0"/>
<path d="M102.4 72.5333V89.6C102.4 94.3128 98.5795 98.1333 93.8666 98.1333C89.1538 98.1333 85.3333 94.3128 85.3333 89.6V72.5333H102.4Z" fill="#A59078"/>
<path d="M426.667 72.5333V89.6C426.667 94.3128 422.846 98.1333 418.133 98.1333C413.421 98.1333 409.6 94.3128 409.6 89.6V72.5333H426.667Z" fill="#A59078"/>
</g>
<defs>
<clipPath id="clip0_117_72">
<rect width="512" height="512" fill="white"/>
</clipPath>
</defs>
</svg>
