<svg width="512" height="512" viewBox="0 0 512 512" fill="none" xmlns="http://www.w3.org/2000/svg">
<path d="M490.667 185.515C478.869 185.515 469.333 175.957 469.333 164.181V63.0613C469.333 51.8187 460.181 42.6667 448.96 42.6667H347.84C336.043 42.6667 326.507 33.1093 326.507 21.3333C326.507 9.55733 336.043 0 347.84 0H448.96C483.733 0 512 28.288 512 63.0613V164.181C512 175.957 502.464 185.515 490.667 185.515Z" fill="#607D8B"/>
<path d="M21.3333 185.515C9.536 185.515 0 175.957 0 164.181V63.0613C0 28.288 28.2667 0 63.04 0H164.16C175.957 0 185.493 9.55733 185.493 21.3333C185.493 33.1093 175.957 42.6667 164.16 42.6667H63.04C51.8187 42.6667 42.6667 51.8187 42.6667 63.0613V164.181C42.6667 175.957 33.1307 185.515 21.3333 185.515Z" fill="#607D8B"/>
<path d="M448.96 512H347.84C336.043 512 326.507 502.443 326.507 490.667C326.507 478.891 336.043 469.333 347.84 469.333H448.96C460.181 469.333 469.333 460.181 469.333 448.939V347.819C469.333 336.043 478.869 326.485 490.667 326.485C502.464 326.485 512 336.043 512 347.819V448.939C512 483.712 483.733 512 448.96 512V512Z" fill="#607D8B"/>
<path d="M164.16 512H63.04C28.2667 512 0 483.712 0 448.939V347.819C0 336.043 9.536 326.485 21.3333 326.485C33.1307 326.485 42.6667 336.043 42.6667 347.819V448.939C42.6667 460.181 51.8187 469.333 63.04 469.333H164.16C175.957 469.333 185.493 478.891 185.493 490.667C185.493 502.443 175.957 512 164.16 512V512Z" fill="#607D8B"/>
<path d="M202.197 238.059H96C84.2027 238.059 74.6667 228.501 74.6667 216.725V96C74.6667 84.224 84.2027 74.6667 96 74.6667H202.197C213.995 74.6667 223.531 84.224 223.531 96V216.725C223.531 228.501 213.973 238.059 202.197 238.059ZM117.333 195.392H180.864V117.333H117.333V195.392Z" fill="#2196F3"/>
<path d="M416 437.333H309.333C297.536 437.333 288 427.776 288 416V337.451C288 325.675 297.536 316.117 309.333 316.117C321.131 316.117 330.667 325.675 330.667 337.451V394.667H394.667V330.667H369.451C357.653 330.667 348.117 321.109 348.117 309.333C348.117 297.557 357.653 288 369.451 288H416C427.797 288 437.333 297.557 437.333 309.333V416C437.333 427.776 427.797 437.333 416 437.333Z" fill="#2196F3"/>
<path d="M416 204.608H328.725C316.928 204.608 307.392 195.051 307.392 183.275V96C307.392 84.224 316.928 74.6667 328.725 74.6667H416C427.797 74.6667 437.333 84.224 437.333 96V183.275C437.333 195.051 427.797 204.608 416 204.608ZM350.059 161.941H394.667V117.333H350.059V161.941Z" fill="#2196F3"/>
<path d="M266.197 301.568H96C84.2027 301.568 74.6667 292.011 74.6667 280.235C74.6667 268.459 84.2027 258.901 96 258.901H244.864V115.392C244.864 103.616 254.4 94.0587 266.197 94.0587C277.995 94.0587 287.531 103.616 287.531 115.392V280.235C287.531 292.011 277.973 301.568 266.197 301.568Z" fill="#2196F3"/>
<path d="M325.333 296.235C313.536 296.235 304 286.677 304 274.901V245.824C304 234.048 313.536 224.491 325.333 224.491H421.333C433.131 224.491 442.667 234.048 442.667 245.824C442.667 257.6 433.131 267.157 421.333 267.157H346.667V274.901C346.667 286.677 337.131 296.235 325.333 296.235Z" fill="#2196F3"/>
<path d="M256.469 409.621C244.672 409.621 235.136 400.064 235.136 388.288V339.819C235.136 328.043 244.672 318.485 256.469 318.485C268.267 318.485 277.803 328.043 277.803 339.819V388.288C277.803 400.064 268.267 409.621 256.469 409.621Z" fill="#2196F3"/>
<path d="M202.667 437.333H96C84.2027 437.333 74.6667 427.776 74.6667 416V338.432C74.6667 326.656 84.2027 317.099 96 317.099H202.667C214.464 317.099 224 326.656 224 338.432V416C224 427.776 214.464 437.333 202.667 437.333ZM117.333 394.667H181.333V359.765H117.333V394.667Z" fill="#2196F3"/>
</svg>
