<svg width="512" height="512" viewBox="0 0 512 512" fill="none" xmlns="http://www.w3.org/2000/svg">
<path d="M340.43 52.21H324.98V141.44H340.43V52.21Z" fill="#2A3A4C"/>
<path d="M32.852 301.607C32.341 301.607 31.823 301.556 31.304 301.45C27.128 300.599 24.428 296.532 25.273 292.354C25.67 290.39 35.477 243.702 76.568 195.69C100.648 167.556 130.53 144.836 165.386 128.162C208.713 107.436 259.845 96.073 317.363 94.39C317.438 94.387 317.514 94.386 317.589 94.386H332.706C336.973 94.386 340.431 97.845 340.431 102.111C340.431 106.377 336.973 109.836 332.706 109.836H317.702C262.619 111.46 213.784 122.235 172.548 141.862C139.688 157.502 111.52 178.788 88.824 205.13C50.052 250.132 40.505 294.979 40.412 295.427C39.663 299.084 36.445 301.607 32.852 301.607Z" fill="#2A3A4C"/>
<path d="M385.113 115.793H378.974C374.707 115.793 371.249 112.334 371.249 108.068C371.249 103.802 374.707 100.343 378.974 100.343H385.113C388.99 100.343 392.144 97.189 392.144 93.312C392.144 89.435 388.99 86.281 385.113 86.281H10.809C6.54198 86.281 3.08398 82.822 3.08398 78.556C3.08398 74.29 6.54198 70.831 10.809 70.831H385.113C397.509 70.831 407.594 80.916 407.594 93.312C407.594 105.708 397.51 115.793 385.113 115.793Z" fill="#2A3A4C"/>
<path d="M340.287 57.648H325.126C315.488 57.648 307.674 49.835 307.674 40.196C307.674 30.773 311.373 21.727 317.974 15.003L332.706 0L347.438 15.004C354.04 21.728 357.738 30.774 357.738 40.197C357.738 49.835 349.925 57.648 340.287 57.648Z" fill="#C69C6D"/>
<path d="M6.713 512C4.451 512 2.617 510.166 2.617 507.904V56.194C2.617 53.932 4.451 52.098 6.713 52.098C26.274 52.098 42.131 67.955 42.131 87.516V476.581C42.131 496.143 26.274 512 6.713 512Z" fill="#35495D"/>
<path d="M332.89 485.32C430.363 485.32 509.38 406.303 509.38 308.83C509.38 211.357 430.363 132.34 332.89 132.34C235.417 132.34 156.4 211.357 156.4 308.83C156.4 406.303 235.417 485.32 332.89 485.32Z" fill="#C69C6D"/>
<path d="M332.893 132.342C324.621 132.342 316.485 132.924 308.516 134.026C394.45 145.901 460.629 219.632 460.629 308.832C460.629 398.032 394.451 471.763 308.516 483.638C316.485 484.739 324.621 485.322 332.893 485.322C430.366 485.322 509.383 406.305 509.383 308.832C509.383 211.359 430.366 132.342 332.893 132.342Z" fill="#BA844F"/>
<path d="M332.89 453.62C412.855 453.62 477.68 388.795 477.68 308.83C477.68 228.865 412.855 164.04 332.89 164.04C252.925 164.04 188.1 228.865 188.1 308.83C188.1 388.795 252.925 453.62 332.89 453.62Z" fill="#E2EFFA"/>
<path d="M332.893 164.044C324.677 164.044 316.625 164.739 308.783 166.054C377.269 177.535 429.46 237.083 429.46 308.831C429.46 380.579 377.269 440.127 308.783 451.608C316.625 452.923 324.678 453.618 332.893 453.618C412.857 453.618 477.68 388.795 477.68 308.831C477.68 228.867 412.857 164.044 332.893 164.044Z" fill="#CADDEA"/>
<path d="M391.115 340.685C394.15 340.685 397.028 338.886 398.258 335.907C399.888 331.963 398.011 327.447 394.068 325.818L340.433 303.665V232.066C340.433 227.8 336.975 224.341 332.708 224.341C328.441 224.341 324.983 227.8 324.983 232.066V308.832C324.983 311.959 326.869 314.778 329.759 315.972L388.17 340.098C389.133 340.496 390.132 340.685 391.115 340.685Z" fill="#1785B8"/>
<path d="M332.893 212.266C337.16 212.266 340.618 208.807 340.618 204.541V195.996C340.618 191.73 337.16 188.271 332.893 188.271C328.626 188.271 325.168 191.73 325.168 195.996V204.541C325.168 208.807 328.626 212.266 332.893 212.266Z" fill="#C1D15D"/>
<path d="M325.168 413.122V421.667C325.168 425.933 328.626 429.392 332.893 429.392C337.16 429.392 340.618 425.933 340.618 421.667V413.122C340.618 408.856 337.16 405.397 332.893 405.397C328.626 405.397 325.168 408.856 325.168 413.122Z" fill="#C1D15D"/>
<path d="M437.184 301.107C432.917 301.107 429.459 304.566 429.459 308.832C429.459 313.098 432.917 316.557 437.184 316.557H445.729C449.996 316.557 453.454 313.098 453.454 308.832C453.454 304.566 449.996 301.107 445.729 301.107H437.184Z" fill="#C1D15D"/>
<path d="M228.602 301.107H220.056C215.789 301.107 212.331 304.566 212.331 308.832C212.331 313.098 215.789 316.557 220.056 316.557H228.602C232.869 316.557 236.327 313.098 236.327 308.832C236.327 304.565 232.869 301.107 228.602 301.107Z" fill="#C1D15D"/>
<path d="M412.101 377.114C409.083 374.097 404.193 374.097 401.175 377.114C398.158 380.131 398.158 385.022 401.175 388.039L407.217 394.081C408.726 395.589 410.703 396.344 412.68 396.344C414.657 396.344 416.634 395.59 418.143 394.081C421.16 391.064 421.16 386.173 418.143 383.156L412.101 377.114Z" fill="#C1D15D"/>
<path d="M264.611 229.624L258.569 223.582C255.551 220.565 250.661 220.565 247.643 223.582C244.626 226.599 244.626 231.49 247.643 234.507L253.685 240.549C255.194 242.057 257.171 242.812 259.148 242.812C261.125 242.812 263.102 242.058 264.611 240.549C267.628 237.532 267.628 232.641 264.611 229.624Z" fill="#C1D15D"/>
<path d="M418.143 223.582C415.125 220.565 410.235 220.565 407.217 223.582L401.175 229.624C398.158 232.641 398.158 237.532 401.175 240.549C402.684 242.057 404.661 242.812 406.638 242.812C408.615 242.812 410.592 242.058 412.101 240.549L418.143 234.507C421.16 231.49 421.16 226.598 418.143 223.582Z" fill="#C1D15D"/>
<path d="M253.685 377.114L247.643 383.156C244.626 386.173 244.626 391.064 247.643 394.081C249.152 395.589 251.129 396.344 253.106 396.344C255.083 396.344 257.06 395.59 258.569 394.081L264.611 388.039C267.628 385.022 267.628 380.131 264.611 377.114C261.594 374.098 256.703 374.098 253.685 377.114Z" fill="#C1D15D"/>
</svg>
