<svg width="512" height="512" viewBox="0 0 512 512" fill="none" xmlns="http://www.w3.org/2000/svg">
<path d="M449.919 180.259H368.189C357.954 180.259 349.656 171.962 349.656 161.726V131.294C349.656 121.059 357.953 112.761 368.189 112.761H449.919C460.154 112.761 468.452 121.058 468.452 131.294V161.726C468.452 171.962 460.155 180.259 449.919 180.259V180.259Z" fill="#81A7C6"/>
<path d="M436.728 127.718C432.524 127.718 429.116 124.31 429.116 120.106V41.008C429.116 36.804 432.523 33.396 436.728 33.396C440.932 33.396 444.34 36.804 444.34 41.008V120.107C444.34 124.31 440.932 127.718 436.728 127.718V127.718Z" fill="#4D5961"/>
<path d="M381.381 127.718C377.177 127.718 373.769 124.31 373.769 120.106V41.008C373.769 36.804 377.176 33.396 381.381 33.396C385.586 33.396 388.993 36.804 388.993 41.008V120.107C388.992 124.31 385.585 127.718 381.381 127.718V127.718Z" fill="#4D5961"/>
<path d="M351.346 48.353H504.388V3.80399H351.346C339.203 3.80399 329.359 13.648 329.359 25.791V26.366C329.359 38.509 339.203 48.353 351.346 48.353V48.353Z" fill="#909BA5"/>
<path d="M318.292 508.196H504.388V414.163H333.16C324.949 414.163 318.293 420.819 318.293 429.03V508.196H318.292Z" fill="#B9C1CB"/>
<path d="M496.777 3.80399H512V508.195H496.777V3.80399Z" fill="#909BA5"/>
<path d="M51.209 454.136H267.081V485.305H51.209V454.136Z" fill="#C6865C"/>
<path d="M90.917 419.5L81.24 446.057L58.589 508.196H0L42.004 443.106L57.235 419.5H90.917Z" fill="#B9C1CB"/>
<path d="M70.305 419.5L29.976 508.196H0L57.235 419.5H70.305Z" fill="#909BA5"/>
<path d="M318.296 508.196H259.699L237.047 446.057L227.371 419.5H261.061L276.292 443.106L318.296 508.196Z" fill="#B9C1CB"/>
<path d="M247.987 419.5L288.316 508.196H318.292L261.057 419.5H247.987Z" fill="#909BA5"/>
<path d="M57.235 419.5L77.315 406.517L90.917 419.5L81.24 446.057H57.235C51.846 446.057 46.708 445.007 42.004 443.106L57.235 419.5Z" fill="#909BA5"/>
<path d="M276.292 443.106C271.588 445.007 266.442 446.057 261.061 446.057H237.047L227.37 419.5L239.219 400.457L261.06 419.5L276.292 443.106Z" fill="#909BA5"/>
<path d="M159.145 140.305L234.234 107.3L231.417 86.525C230.671 80.989 225.948 76.868 220.367 76.868H97.925C92.343 76.868 87.621 80.988 86.875 86.525L84.057 107.3L159.145 140.305Z" fill="#B9C1CB"/>
<path d="M172.371 134.495L159.145 140.31L84.058 107.297L86.87 86.529C87.616 80.992 92.338 76.87 97.918 76.87H124.362C118.782 76.87 114.061 80.992 113.314 86.529L110.502 107.297L172.371 134.495Z" fill="#909BA5"/>
<path d="M261.057 107.299H57.232C34.775 107.299 16.57 125.504 16.57 147.961V378.842C16.57 401.299 34.775 419.504 57.232 419.504H261.057C283.514 419.504 301.719 401.299 301.719 378.842V147.961C301.72 125.504 283.514 107.299 261.057 107.299V107.299Z" fill="#DA4A54"/>
<path d="M80.323 419.5H57.229C34.777 419.5 16.57 401.301 16.57 378.841V147.964C16.57 125.504 34.778 107.296 57.229 107.296H80.323C57.863 107.296 39.655 125.504 39.655 147.964V378.841C39.655 401.301 57.863 419.5 80.323 419.5Z" fill="#D82E3D"/>
<path d="M131.059 170.873H59.647C48.782 170.873 39.974 179.681 39.974 190.546V252.865C39.974 263.73 48.782 272.538 59.647 272.538H131.059C141.924 272.538 150.732 263.73 150.732 252.865V190.546C150.732 179.681 141.924 170.873 131.059 170.873Z" fill="#D3EFFB"/>
<path d="M167.558 190.546V252.865C167.558 263.73 176.366 272.538 187.231 272.538H258.644C269.509 272.538 278.317 263.73 278.317 252.865V190.546C278.317 179.681 269.509 170.873 258.644 170.873H187.23C176.365 170.873 167.558 179.681 167.558 190.546V190.546Z" fill="#D3EFFB"/>
<path d="M131.059 277.745H59.647C45.928 277.745 34.767 266.584 34.767 252.865V190.546C34.767 176.827 45.928 165.666 59.647 165.666H131.059C144.778 165.666 155.939 176.827 155.939 190.546V252.865C155.939 266.584 144.778 277.745 131.059 277.745ZM59.647 176.08C51.671 176.08 45.182 182.569 45.182 190.546V252.865C45.182 260.841 51.671 267.33 59.647 267.33H131.059C139.035 267.33 145.525 260.841 145.525 252.865V190.546C145.525 182.57 139.036 176.08 131.059 176.08H59.647Z" fill="#D82E3D"/>
<path d="M258.643 277.745H187.23C173.511 277.745 162.35 266.584 162.35 252.865V190.546C162.35 176.827 173.511 165.666 187.23 165.666H258.643C272.362 165.666 283.523 176.827 283.523 190.546V252.865C283.523 266.584 272.362 277.745 258.643 277.745ZM187.23 176.08C179.254 176.08 172.765 182.569 172.765 190.546V252.865C172.765 260.841 179.254 267.33 187.23 267.33H258.643C266.619 267.33 273.108 260.841 273.108 252.865V190.546C273.108 182.57 266.619 176.08 258.643 176.08H187.23Z" fill="#D82E3D"/>
<path d="M63.729 367.239C76.6696 367.239 87.16 356.749 87.16 343.808C87.16 330.867 76.6696 320.377 63.729 320.377C50.7884 320.377 40.298 330.867 40.298 343.808C40.298 356.749 50.7884 367.239 63.729 367.239Z" fill="#ECBE6B"/>
<path d="M254.561 367.239C267.502 367.239 277.992 356.749 277.992 343.808C277.992 330.867 267.502 320.377 254.561 320.377C241.62 320.377 231.13 330.867 231.13 343.808C231.13 356.749 241.62 367.239 254.561 367.239Z" fill="#ECBE6B"/>
<path d="M63.729 373.748C47.22 373.748 33.789 360.317 33.789 343.808C33.789 327.299 47.22 313.868 63.729 313.868C80.238 313.868 93.669 327.299 93.669 343.808C93.669 360.317 80.238 373.748 63.729 373.748ZM63.729 326.887C54.398 326.887 46.807 334.478 46.807 343.809C46.807 353.14 54.398 360.731 63.729 360.731C73.06 360.731 80.651 353.14 80.651 343.809C80.651 334.478 73.06 326.887 63.729 326.887Z" fill="#D82E3D"/>
<path d="M254.561 373.748C238.052 373.748 224.622 360.317 224.622 343.808C224.622 327.299 238.053 313.868 254.561 313.868C271.069 313.868 284.5 327.3 284.5 343.809C284.5 360.317 271.069 373.748 254.561 373.748ZM254.561 326.887C245.231 326.887 237.639 334.478 237.639 343.809C237.639 353.14 245.23 360.731 254.561 360.731C263.892 360.731 271.483 353.14 271.483 343.809C271.482 334.478 263.891 326.887 254.561 326.887Z" fill="#D82E3D"/>
<path d="M266.651 149.917C272.487 149.917 277.218 145.186 277.218 139.35C277.218 133.514 272.487 128.783 266.651 128.783C260.815 128.783 256.084 133.514 256.084 139.35C256.084 145.186 260.815 149.917 266.651 149.917Z" fill="#E7ECF1"/>
<path d="M51.639 149.917C57.475 149.917 62.206 145.186 62.206 139.35C62.206 133.514 57.475 128.783 51.639 128.783C45.803 128.783 41.072 133.514 41.072 139.35C41.072 145.186 45.803 149.917 51.639 149.917Z" fill="#E7ECF1"/>
<path d="M208.872 419.504L203.733 389.31C202.538 382.278 196.438 377.131 189.303 377.131H128.991C121.848 377.131 115.756 382.277 114.554 389.31L109.415 419.504" fill="#4D5961"/>
<path d="M188.201 151.828H130.088C123.724 151.828 118.566 146.669 118.566 140.306C118.566 133.942 123.725 128.784 130.088 128.784H188.201C194.565 128.784 199.723 133.943 199.723 140.306C199.724 146.669 194.565 151.828 188.201 151.828Z" fill="#ECBE6B"/>
<path d="M206.233 314.827H112.05C108.455 314.827 105.541 311.913 105.541 308.318C105.541 304.723 108.455 301.809 112.05 301.809H206.233C209.828 301.809 212.742 304.723 212.742 308.318C212.742 311.913 209.829 314.827 206.233 314.827Z" fill="#4D5961"/>
<path d="M206.233 337.379H112.05C108.455 337.379 105.541 334.465 105.541 330.87C105.541 327.275 108.455 324.361 112.05 324.361H206.233C209.828 324.361 212.742 327.275 212.742 330.87C212.742 334.465 209.829 337.379 206.233 337.379Z" fill="#4D5961"/>
</svg>
